<?xml version="1.0" encoding="iso-8859-1"?>
<!-- Generator: Adobe Illustrator 19.0.0, SVG Export Plug-In . SVG Version: 6.00 Build 0)  -->
<svg version="1.1" id="Layer_1" xmlns="http://www.w3.org/2000/svg" xmlns:xlink="http://www.w3.org/1999/xlink" x="0px" y="0px"
	 viewBox="0 0 512 512" style="enable-background:new 0 0 512 512;" xml:space="preserve">
<g>
	<g>
		<g>
			<path d="M388.236,381.103c32.119-33.938,49.808-78.367,49.808-125.103c0-46.735-17.689-91.164-49.806-125.101
				C353.5,94.178,306.537,73.956,256,73.956c-50.627,0-97.653,20.288-132.417,57.124C91.58,164.988,73.956,209.352,73.956,256
				s17.624,91.013,49.628,124.92c34.764,36.838,81.79,57.124,132.417,57.124C306.537,438.044,353.5,417.822,388.236,381.103z
				 M311.938,405.274c8.991-11.864,16.816-26.556,23.132-43.47c9.396,3.738,18.367,8.152,26.799,13.211
				C347.043,388.27,330.164,398.462,311.938,405.274z M378.084,358.294c-11.213-7.144-23.313-13.243-36.083-18.212
				c5.919-21.884,9.558-46.461,10.38-72.704h62.508C412.517,300.884,399.704,332.542,378.084,358.294z M414.887,244.622h-62.508
				c-0.821-26.244-4.46-50.82-10.38-72.704c12.77-4.97,24.872-11.068,36.085-18.212
				C399.704,179.457,412.517,211.116,414.887,244.622z M361.869,136.984c-8.432,5.061-17.403,9.475-26.799,13.212
				c-6.315-16.914-14.14-31.607-23.131-43.47C330.163,113.538,347.042,123.73,361.869,136.984z M267.179,98.745
				c14.163,5.101,27.901,19.657,38.884,41.657c2.674,5.357,5.125,11.047,7.372,16.996c-14.8,4.021-30.342,6.49-46.255,7.289V98.745z
				 M267.179,187.464c18.277-0.835,36.157-3.675,53.179-8.381c5.318,20.07,8.466,42.311,9.248,65.539h-62.426V187.464z
				 M267.179,267.378h62.426c-0.782,23.229-3.931,45.469-9.248,65.539c-17.021-4.706-34.901-7.546-53.179-8.381V267.378z
				 M267.179,347.313c15.913,0.798,31.455,3.267,46.255,7.289c-2.247,5.948-4.698,11.638-7.372,16.996
				c-10.983,22-24.721,36.556-38.884,41.657V347.313z M200.054,106.726c-9.015,11.895-16.86,26.633-23.183,43.605
				c-9.433-3.731-18.441-8.142-26.907-13.203C164.831,123.804,181.765,113.562,200.054,106.726z M133.769,153.872
				c11.245,7.138,23.381,13.226,36.186,18.182c-5.897,21.85-9.523,46.379-10.342,72.569H97.113
				C99.477,211.189,112.24,179.59,133.769,153.872z M97.113,267.378h62.5c0.819,26.189,4.445,50.719,10.342,72.569
				c-12.806,4.956-24.941,11.044-36.186,18.183C112.24,332.411,99.477,300.811,97.113,267.378z M149.965,374.872
				c8.465-5.06,17.473-9.472,26.906-13.203c6.324,16.972,14.169,31.71,23.183,43.604
				C181.766,398.437,164.831,388.195,149.965,374.872z M244.423,413.118c-14.025-5.227-27.612-19.722-38.493-41.52
				c-2.689-5.385-5.152-11.107-7.408-17.089c14.696-3.966,30.118-6.403,45.901-7.195V413.118z M244.423,324.536
				c-18.144,0.829-35.9,3.636-52.812,8.282c-5.302-20.045-8.442-42.25-9.223-65.44h62.035V324.536z M244.423,244.622h-62.036
				c0.781-23.191,3.922-45.396,9.223-65.44c16.913,4.644,34.669,7.451,52.813,8.282V244.622z M244.423,164.687
				c-15.783-0.792-31.206-3.229-45.901-7.194c2.256-5.984,4.719-11.704,7.408-17.089c10.882-21.798,24.468-36.293,38.493-41.52
				V164.687z"/>
			<path d="M457.821,98.489c-3.87-4.95-11.022-5.824-15.972-1.954c-4.951,3.871-5.825,11.022-1.954,15.972
				c0.845,1.081,1.68,2.169,2.505,3.265c2.237,2.967,5.644,4.531,9.095,4.531c2.384,0,4.788-0.746,6.839-2.292
				c5.019-3.782,6.021-10.916,2.239-15.935C459.667,100.873,458.75,99.676,457.821,98.489z"/>
			<path d="M487.917,147.463c-2.668-5.689-9.442-8.142-15.131-5.473c-5.689,2.667-8.14,9.441-5.473,15.131
				c14.553,31.044,21.932,64.312,21.932,98.879c0,17.76-2.004,35.458-5.954,52.601c-1.411,6.124,2.409,12.231,8.532,13.642
				c0.86,0.198,1.719,0.294,2.565,0.294c5.18,0,9.865-3.562,11.077-8.826C509.801,294.894,512,275.478,512,256
				C512,218.07,503.897,181.553,487.917,147.463z"/>
			<path d="M103.714,432.674c-2.307-1.99-4.611-4.057-6.848-6.146c-4.594-4.288-11.793-4.04-16.081,0.554
				c-4.288,4.594-4.039,11.793,0.554,16.081c2.453,2.289,4.98,4.557,7.51,6.74c2.15,1.855,4.795,2.763,7.427,2.763
				c3.194,0,6.37-1.338,8.62-3.946C109.001,443.963,108.471,436.778,103.714,432.674z"/>
			<path d="M22.756,256c0-17.76,2.004-35.458,5.954-52.601c1.411-6.124-2.409-12.231-8.532-13.642
				c-6.125-1.413-12.231,2.41-13.642,8.532C2.199,217.106,0,236.522,0,256c0,44.827,11.758,88.94,34.003,127.57
				c2.106,3.657,5.933,5.701,9.87,5.701c1.926,0,3.879-0.489,5.667-1.519c5.445-3.136,7.318-10.092,4.182-15.537
				C33.464,337.034,22.756,296.847,22.756,256z"/>
			<path d="M432.536,416.201l-42.482-0.641c-6.255-0.056-11.453,4.922-11.547,11.206c-0.094,6.283,4.922,11.453,11.205,11.547
				l11.522,0.173c-41.189,32.845-92.093,50.757-145.234,50.757c-32.404,0-63.762-6.515-93.203-19.364
				c-5.761-2.513-12.467,0.118-14.979,5.877c-2.513,5.759,0.118,12.465,5.877,14.979C186.024,504.846,220.444,512,256,512
				c58.179,0,113.917-19.563,159.064-55.439l-2.068,10.507c-1.214,6.166,2.8,12.148,8.966,13.361
				c0.742,0.146,1.481,0.216,2.21,0.216c5.326,0,10.084-3.759,11.151-9.182l8.207-41.687c0.652-3.31-0.199-6.737-2.321-9.358
				C439.084,417.797,435.909,416.253,432.536,416.201z"/>
			<path d="M122.375,97.187c0.059,0,0.117,0.001,0.175,0.001c6.204,0,11.28-4.982,11.373-11.207
				c0.094-6.283-4.922-11.453-11.206-11.547l-12.871-0.193C151.195,40.927,202.464,22.756,256,22.756
				c53.774,0,106.247,18.737,147.754,52.76c4.859,3.982,12.027,3.272,16.012-1.587c3.983-4.859,3.273-12.029-1.587-16.012
				C372.615,20.569,315.02,0,256,0C198.113,0,142.644,19.367,97.618,54.9l1.815-9.219c1.214-6.166-2.8-12.148-8.966-13.361
				c-6.168-1.215-12.148,2.8-13.361,8.966l-8.207,41.687c-0.652,3.31,0.199,6.737,2.321,9.358c2.123,2.621,5.299,4.165,8.671,4.217
				L122.375,97.187z"/>
		</g>
	</g>
</g>
<g>
</g>
<g>
</g>
<g>
</g>
<g>
</g>
<g>
</g>
<g>
</g>
<g>
</g>
<g>
</g>
<g>
</g>
<g>
</g>
<g>
</g>
<g>
</g>
<g>
</g>
<g>
</g>
<g>
</g>
</svg>
