<?xml version="1.0" encoding="iso-8859-1"?>
<!-- Generator: Adobe Illustrator 19.0.0, SVG Export Plug-In . SVG Version: 6.00 Build 0)  -->
<svg version="1.1" id="Layer_1" xmlns="http://www.w3.org/2000/svg" xmlns:xlink="http://www.w3.org/1999/xlink" x="0px" y="0px"
	 viewBox="0 0 459 459" style="enable-background:new 0 0 459 459;" xml:space="preserve">
<g id="XMLID_843_">
	<g>
		<g>
			<path d="M229.501,178.662c-3.233,0-6.391,0.316-9.458,0.896L160.757,67.524c-3.875-7.322-12.952-10.118-20.273-6.242
				c-7.322,3.874-10.117,12.951-6.242,20.273l59.277,112.02c-8.938,8.939-14.164,20.867-14.791,33.342
				c-0.236,4.699,0.211,9.418,1.142,13.585l-50.816,28.94c-7.198,4.1-9.71,13.259-5.61,20.457c2.766,4.857,7.833,7.58,13.048,7.58
				c2.517,0,5.067-0.635,7.409-1.969l50.846-28.957c9.098,8.538,21.321,13.784,34.753,13.784c28.031,0,50.837-22.806,50.837-50.837
				C280.337,201.468,257.532,178.662,229.501,178.662z M229.501,250.337c-11.517,0-20.838-9.397-20.838-20.837
				c0-11.633,9.495-20.838,20.838-20.838c11.489,0,20.837,9.348,20.837,20.838C250.337,240.99,240.99,250.337,229.501,250.337z"/>
			<path d="M229.5,0C102.751,0,0,102.751,0,229.5S102.751,459,229.5,459S459,356.249,459,229.5S356.249,0,229.5,0z M370.568,370.568
				c-34.123,34.123-78.43,54.362-126.068,57.879l0.001-23.175c0-8.284-6.715-15-15-15c-8.283,0-15,6.716-15,15l-0.001,23.175
				c-47.637-3.518-91.945-23.756-126.067-57.879c-34.124-34.123-54.362-78.431-57.88-126.068h23.174c8.284,0,15-6.716,15-15
				s-6.716-15-15-15H30.553c3.518-47.638,23.756-91.945,57.879-126.068S166.863,34.07,214.5,30.552v23.174c0,8.284,6.716,15,15,15
				s15-6.716,15-15V30.553c47.637,3.517,91.944,23.756,126.067,57.879s54.362,78.43,57.879,126.068h-23.174c-8.284,0-15,6.716-15,15
				s6.716,15,15,15h23.174C424.93,292.137,404.691,336.445,370.568,370.568z"/>
		</g>
	</g>
</g>
<g>
</g>
<g>
</g>
<g>
</g>
<g>
</g>
<g>
</g>
<g>
</g>
<g>
</g>
<g>
</g>
<g>
</g>
<g>
</g>
<g>
</g>
<g>
</g>
<g>
</g>
<g>
</g>
<g>
</g>
</svg>
