<?xml version="1.0" encoding="iso-8859-1"?>
<!-- Generator: Adobe Illustrator 18.1.1, SVG Export Plug-In . SVG Version: 6.00 Build 0)  -->
<svg version="1.1" id="Capa_1" xmlns="http://www.w3.org/2000/svg" xmlns:xlink="http://www.w3.org/1999/xlink" x="0px" y="0px"
	 viewBox="0 0 611.999 611.999" style="enable-background:new 0 0 611.999 611.999;" xml:space="preserve">
<g>
	<g>
		<g>
			<path d="M567.208,182.659L543.171,80.04c-6.668-29.72-36.253-48.517-65.989-41.911L43.354,134.437
				c-29.786,6.613-48.637,36.228-42.036,65.98l55.618,252.887v66.553c0,30.512,24.825,55.335,55.338,55.335h444.387
				c30.515,0,55.338-24.824,55.338-55.335V378.416v-76.001v-65.44C611.999,210.07,592.692,187.6,567.208,182.659z M556.66,217.345
				c10.824,0,19.631,8.805,19.631,19.627v47.587H92.642v-47.587c0-10.822,8.808-19.627,19.631-19.627H556.66z M576.293,360.561
				H92.642v-40.294h483.65V360.561z M56.936,236.974v50.097l-20.752-94.357c-2.345-10.568,4.341-21.073,14.908-23.419l433.83-96.306
				c10.56-2.348,21.07,4.341,23.418,14.909c0.015,0.067,0.03,0.134,0.046,0.199l21.912,93.54H112.274
				C81.759,181.638,56.936,206.462,56.936,236.974z M576.293,519.856c0,10.824-8.808,19.628-19.631,19.628H112.274
				c-10.824,0-19.631-8.806-19.631-19.628v-68.684c0-0.027,0-0.054,0-0.08v-54.825h483.65V519.856z"/>
		</g>
	</g>
</g>
<g>
</g>
<g>
</g>
<g>
</g>
<g>
</g>
<g>
</g>
<g>
</g>
<g>
</g>
<g>
</g>
<g>
</g>
<g>
</g>
<g>
</g>
<g>
</g>
<g>
</g>
<g>
</g>
<g>
</g>
</svg>
